<svg xmlns="http://www.w3.org/2000/svg" width="360" height="780" viewBox="0 0 360 780" fill="none">
  <rect width="360" height="780" rx="28" fill="#0F1627"/>
  <rect x="16" y="24" width="328" height="48" rx="12" fill="#121A2C" stroke="#1F2A44"/>
  <text x="32" y="54" fill="#C6D3F5" font-family="Arial,Helvetica,sans-serif" font-size="18" font-weight="600">tickertronixhub.local</text>
  <text x="24" y="94" fill="#ECEFF7" font-family="Arial,Helvetica,sans-serif" font-size="22" font-weight="700">Asset Selection</text>
  <g>
    <rect x="20" y="112" width="92" height="32" rx="10" fill="#1E2C43"/>
    <text x="40" y="133" fill="#C7D2F1" font-family="Arial,Helvetica,sans-serif" font-size="13" font-weight="700">Stocks</text>
    <rect x="116" y="112" width="72" height="32" rx="10" fill="#0F1C2E" stroke="#203458"/>
    <text x="132" y="133" fill="#7AD0FF" font-family="Arial,Helvetica,sans-serif" font-size="13" font-weight="700">Forex</text>
    <rect x="196" y="112" width="86" height="32" rx="10" fill="#0F1C2E" stroke="#203458"/>
    <text x="214" y="133" fill="#7AD0FF" font-family="Arial,Helvetica,sans-serif" font-size="13" font-weight="700">Crypto</text>
  </g>
  <text x="24" y="164" fill="#A0B9EB" font-family="Arial,Helvetica,sans-serif" font-size="14" font-weight="700">Available Stocks</text>
  <rect x="20" y="176" width="320" height="36" rx="10" fill="#121A2C" stroke="#1F2A44"/>
  <text x="32" y="200" fill="#CED9F5" font-family="Arial,Helvetica,sans-serif" font-size="13">Search stocks by symbol or name…</text>
  <rect x="20" y="220" width="320" height="32" rx="10" fill="#2E8CF0"/>
  <text x="96" y="242" fill="#F8FBFF" font-family="Arial,Helvetica,sans-serif" font-size="14" font-weight="700">Refresh Stocks List</text>
  <g>
    <rect x="20" y="268" width="320" height="56" rx="12" fill="#111B2D" stroke="#203458"/>
    <text x="32" y="296" fill="#EAF0FF" font-family="Arial,Helvetica,sans-serif" font-size="14" font-weight="700">AAAU</text>
    <text x="32" y="318" fill="#9AB9E7" font-family="Arial,Helvetica,sans-serif" font-size="12">Goldman Sachs Physical Gold ETF</text>
    <rect x="270" y="282" width="52" height="26" rx="8" fill="#ECF9EF"/>
    <text x="284" y="300" fill="#2B8C3B" font-family="Arial,Helvetica,sans-serif" font-size="12" font-weight="800">Active</text>
  </g>
  <g>
    <rect x="20" y="332" width="320" height="56" rx="12" fill="#111B2D" stroke="#203458"/>
    <text x="32" y="360" fill="#EAF0FF" font-family="Arial,Helvetica,sans-serif" font-size="14" font-weight="700">AAPL</text>
    <text x="32" y="382" fill="#9AB9E7" font-family="Arial,Helvetica,sans-serif" font-size="12">Apple Inc.</text>
    <rect x="286" y="346" width="38" height="26" rx="8" fill="#E4ECF5"/>
    <text x="295" y="364" fill="#1C3658" font-family="Arial,Helvetica,sans-serif" font-size="12" font-weight="800">+Add</text>
  </g>
  <g>
    <rect x="20" y="396" width="320" height="56" rx="12" fill="#111B2D" stroke="#203458"/>
    <text x="32" y="424" fill="#EAF0FF" font-family="Arial,Helvetica,sans-serif" font-size="14" font-weight="700">AAGY</text>
    <text x="32" y="446" fill="#9AB9E7" font-family="Arial,Helvetica,sans-serif" font-size="12">General Dynamics Co.</text>
    <rect x="286" y="410" width="38" height="26" rx="8" fill="#E4ECF5"/>
    <text x="295" y="428" fill="#1C3658" font-family="Arial,Helvetica,sans-serif" font-size="12" font-weight="800">+Add</text>
  </g>
  <rect x="20" y="468" width="320" height="110" rx="16" fill="#071B30" stroke="#0F2D50" stroke-width="2"/>
  <text x="32" y="494" fill="#8EE3AA" font-family="Arial,Helvetica,sans-serif" font-size="14" font-weight="700">Selected Stocks (11)</text>
  <text x="32" y="516" fill="#EAF0FF" font-family="Arial,Helvetica,sans-serif" font-size="13">AAAU • AAPL • AA • AAGY • ...</text>
  <rect x="32" y="536" width="132" height="32" rx="10" fill="#0DBA6D"/>
  <text x="60" y="557" fill="#E9FFF3" font-family="Arial,Helvetica,sans-serif" font-size="13" font-weight="800">Save Selection</text>
  <text x="24" y="594" fill="#7082A6" font-family="Arial,Helvetica,sans-serif" font-size="12">Simplified recreation of the asset chooser shown in the screenshot set.</text>
</svg>
